<svg width="25" height="24" viewBox="0 0 25 24" fill="none" xmlns="http://www.w3.org/2000/svg">
<path d="M6.00012 16C11.0001 18.5 14.0001 18.5 19.0001 16" stroke="#FFF1F4" stroke-width="1.5" stroke-linecap="round" stroke-linejoin="round"/>
<path d="M16.0001 17.5L17.0001 19.5C17.0001 19.5 21.1711 18.172 22.5001 16C22.5001 15 23.0301 7.853 19.5001 5.5C18.0001 4.5 15.5001 4 15.5001 4L14.5001 6H12.5001" stroke="#FFF1F4" stroke-width="1.5" stroke-linecap="round" stroke-linejoin="round"/>
<path d="M9.02814 17.5L8.02814 19.5C8.02814 19.5 3.85714 18.172 2.52814 16C2.52814 15 1.99814 7.853 5.52814 5.5C7.02814 4.5 9.52814 4 9.52814 4L10.5281 6H12.5281" stroke="#FFF1F4" stroke-width="1.5" stroke-linecap="round" stroke-linejoin="round"/>
<path d="M9.00012 14C8.17212 14 7.50012 13.105 7.50012 12C7.50012 10.895 8.17212 10 9.00012 10C9.82812 10 10.5001 10.895 10.5001 12C10.5001 13.105 9.82812 14 9.00012 14ZM16.0001 14C15.1721 14 14.5001 13.105 14.5001 12C14.5001 10.895 15.1721 10 16.0001 10C16.8281 10 17.5001 10.895 17.5001 12C17.5001 13.105 16.8281 14 16.0001 14Z" stroke="#FFF1F4" stroke-width="1.5" stroke-linecap="round" stroke-linejoin="round"/>
</svg>
