<svg width="22" height="23" viewBox="0 0 22 23" fill="none" xmlns="http://www.w3.org/2000/svg">
<path d="M8.50012 19C3.50012 20.5 3.50012 16.5 1.50012 16M15.5001 22V18.13C15.5376 17.6532 15.4732 17.1738 15.3111 16.7238C15.1491 16.2738 14.8931 15.8634 14.5601 15.52C17.7001 15.17 21.0001 13.98 21.0001 8.52C20.9999 7.12383 20.4628 5.7812 19.5001 4.77C19.956 3.54851 19.9237 2.19835 19.4101 0.999999C19.4101 0.999999 18.2301 0.649999 15.5001 2.48C13.2081 1.85882 10.7921 1.85882 8.50012 2.48C5.77012 0.649999 4.59012 0.999999 4.59012 0.999999C4.0765 2.19835 4.04427 3.54851 4.50012 4.77C3.53025 5.7887 2.99264 7.14346 3.00012 8.55C3.00012 13.97 6.30012 15.16 9.44012 15.55C9.11112 15.89 8.85739 16.2954 8.69543 16.7399C8.53348 17.1844 8.46693 17.6581 8.50012 18.13V22" stroke="#FFF1F4" stroke-width="2" stroke-linecap="round" stroke-linejoin="round"/>
</svg>
