<svg width="25" height="24" viewBox="0 0 25 24" fill="none" xmlns="http://www.w3.org/2000/svg">
<g clip-path="url(#clip0_206_405)">
<path d="M23.5 2.99998C22.5424 3.67546 21.4821 4.19209 20.36 4.52999C19.7577 3.8375 18.9573 3.34668 18.067 3.12391C17.1767 2.90115 16.2395 2.95718 15.3821 3.28444C14.5247 3.6117 13.7884 4.19439 13.273 4.9537C12.7575 5.71302 12.4877 6.61232 12.5 7.52998V8.52998C10.7426 8.57555 9.00127 8.1858 7.43101 7.39543C5.86074 6.60506 4.51032 5.43862 3.5 3.99998C3.5 3.99998 -0.5 13 8.5 17C6.44053 18.398 3.98716 19.0989 1.5 19C10.5 24 21.5 19 21.5 7.49998C21.4991 7.22144 21.4723 6.94358 21.42 6.66999C22.4406 5.66348 23.1608 4.3927 23.5 2.99998Z" stroke="#FFF1F4" stroke-width="2" stroke-linecap="round" stroke-linejoin="round"/>
</g>
<defs>
<clipPath id="clip0_206_405">
<rect width="24" height="24" fill="white" transform="translate(0.5)"/>
</clipPath>
</defs>
</svg>
